Coordinates
version=1
nRows=14
nColumns=36
inDegrees=yes

Units are S.I. units (second, meters, Newtons, ...)
If the header above contains a line with 'inDegrees', this indicates whether rotational values are in degrees (yes) or radians (no).

endheader
time	pelvis_tilt	pelvis_list	pelvis_rotation	pelvis_tx	pelvis_ty	pelvis_tz	hip_flexion_r	hip_adduction_r	hip_rotation_r	knee_angle_r	knee_angle_r_beta	ankle_angle_r	subtalar_angle_r	mtp_angle_r	hip_flexion_l	hip_adduction_l	hip_rotation_l	knee_angle_l	knee_angle_l_beta	ankle_angle_l	subtalar_angle_l	mtp_angle_l	lumbar_extension	lumbar_bending	lumbar_rotation	arm_flex_r	arm_add_r	arm_rot_r	elbow_flex_r	pro_sup_r	arm_flex_l	arm_add_l	arm_rot_l	elbow_flex_l	pro_sup_l
      1.15000000	      2.87161611	      4.75222265	     90.11252115	     -0.19841480	      0.95106713	     -0.30506250	     14.34463248	      4.11119461	     -6.98940115	     25.18605507	      0.43957959	      3.69559506	    -10.10088841	     -7.50000080	     -6.15449262	     -5.08409041	     -4.86301853	     50.72783880	      0.88536781	    -26.73724558	    -12.30457439	     -7.50000080	    -16.65046618	      5.41499645	     -0.48497685	     -2.09179283	     -4.57412150	    -35.00567097	     47.31905837	    104.79672220	     12.25947160	     -3.80852987	    -19.55145953	     43.59736732	     90.22830522
      1.16000000	      2.81592998	      4.73668144	     90.48948796	     -0.19810679	      0.95306104	     -0.31672096	     13.29214504	      3.96144960	     -7.68477038	     24.73490156	      0.43170547	      4.42929188	     -9.19310354	     -7.50000077	     -4.30048702	     -5.29461014	     -4.39501254	     53.40029303	      0.93201093	    -28.93250932	    -14.43040286	     -7.50000077	    -16.67383080	      5.37403283	     -0.38054932	     -2.12782739	     -4.65820628	    -35.02533923	     47.15368096	    104.71203217	     12.02432334	     -3.52301049	    -19.69158197	     43.08982307	     90.26573651
      1.17000000	      2.66117253	      4.61370618	     91.01954817	     -0.19810149	      0.95493695	     -0.32783070	     12.38405724	      3.68610370	     -8.41000883	     24.28589061	      0.42386875	      5.06347816	     -8.47086422	     -7.50000074	     -2.22806187	     -5.30983590	     -3.75272661	     55.90464501	      0.97572012	    -30.04628019	    -16.85681370	     -7.50000074	    -16.63907627	      5.27104664	     -0.41815205	     -2.10591237	     -4.74523130	    -35.14806026	     47.07541438	    104.51241122	     11.83829251	     -3.32915606	    -19.83447822	     42.66348444	     90.25307872
      1.18000000	      2.48484959	      4.61003239	     91.37157530	     -0.19772096	      0.95690213	     -0.33879113	     11.36090560	      3.50978857	     -8.71455064	     23.79002372	      0.41521424	      5.75870506	     -7.94949583	     -7.50000072	     -0.36708953	     -5.32538313	     -3.47373280	     58.15028870	      1.01491400	    -29.21689715	    -18.84101732	     -7.50000072	    -16.76683532	      5.03488917	     -0.27858317	     -2.01111461	     -4.83422919	    -35.10642008	     46.88068204	    104.09995286	     11.66749664	     -3.19990307	    -19.82360122	     42.21917068	     90.04528152
      1.19000000	      2.44477286	      4.10881973	     91.99859693	     -0.19782901	      0.95795077	     -0.34962817	     10.93317218	      3.35625661	     -9.55826221	     23.39565717	      0.40833125	      6.20333843	     -7.02959132	     -7.50000068	      2.16305578	     -5.39529038	     -2.94038436	     60.31348707	      1.05266893	    -27.53171289	    -21.35222091	     -7.50000068	    -16.28457697	      5.04196772	     -0.41050939	     -2.06349828	     -4.87017575	    -35.17308282	     46.95662623	    103.58003506	     11.34893741	     -3.05208138	    -19.90353188	     41.71691114	     89.84349794
      1.20000000	      2.21358929	      4.02030106	     92.19626165	     -0.19730607	      0.95972218	     -0.36049737	     10.00932552	      3.18615268	     -9.64586016	     22.90728881	      0.39980761	      6.69328063	     -6.68611705	     -7.50000065	      4.04911589	     -5.23349520	     -2.83007935	     62.09957353	      1.08384202	    -24.55527039	    -23.07004211	     -7.50000065	    -16.29633080	      4.70316346	     -0.21973410	     -1.93434248	     -4.90922142	    -35.12212973	     46.83054451	    102.94931627	     11.02935441	     -2.98444885	    -19.91956394	     41.34223412	     89.49557465
      1.21000000	      2.06153858	      3.71285115	     92.48040005	     -0.19694772	      0.96104779	     -0.37090538	      9.32708907	      3.08192569	     -9.86127191	     22.31775615	      0.38951833	      7.03377298	     -6.31013748	     -7.50000062	      6.28039028	     -5.11964463	     -2.69798341	     63.68273770	      1.11147345	    -21.53665815	    -24.59965964	     -7.50000062	    -16.15508979	      4.48071891	     -0.06644732	     -1.84809441	     -5.05130652	    -35.05193206	     46.93062035	    102.48272841	     10.76401112	     -2.96393400	    -20.03856462	     40.94815945	     89.21471559
      1.22000000	      1.79894620	      3.54373630	     92.54197252	     -0.19634554	      0.96258067	     -0.38165153	      8.46087801	      2.93509391	     -9.74428812	     21.69351294	      0.37862323	      7.39718272	     -6.06432806	     -7.50000060	      8.17804356	     -4.87549628	     -2.79932840	     64.69059887	      1.12906395	    -19.06955260	    -25.90104024	     -7.50000060	    -16.13861045	      4.09254947	      0.15730074	     -1.67649222	     -5.11799930	    -34.89761960	     46.99730928	    102.17926483	     10.37019714	     -3.00660456	    -20.15207287	     40.61333417	     89.01138084
      1.23000000	      1.62483415	      3.35974433	     92.55368201	     -0.19574081	      0.96392589	     -0.39232844	      7.59742500	      2.86601187	     -9.70278616	     21.01174159	      0.36672407	      7.64851927	     -5.79783537	     -7.50000059	     10.04587002	     -4.75530941	     -3.05327809	     65.35979468	      1.14074362	    -16.85482627	    -27.18348130	     -7.50000059	    -16.08892591	      3.81395789	      0.43362340	     -1.52790979	     -5.24704267	    -34.75018823	     47.15657039	    102.02760476	      9.96697822	     -3.03519138	    -20.30864284	     40.25911798	     88.88812300
      1.24000000	      1.44869327	      3.14604673	     92.47280829	     -0.19498528	      0.96501051	     -0.40309699	      6.75875774	      2.81450202	     -9.54140391	     20.35723936	      0.35530085	      7.91143024	     -5.46084424	     -7.50000058	     11.86035443	     -4.65756033	     -3.43787448	     65.71881357	      1.14700968	    -14.90347078	    -27.98143811	     -7.50000058	    -15.96701978	      3.50877610	      0.75008248	     -1.41688025	     -5.36725751	    -34.54354606	     47.39819146	    101.82641458	      9.44797969	     -3.09803995	    -20.51064890	     39.93453689	     88.71282010
      1.25000000	      1.25800767	      2.98062811	     92.36865302	     -0.19418015	      0.96606579	     -0.41389783	      5.85741176	      2.74786001	     -9.40859664	     19.64146185	      0.34280818	      8.17669253	     -5.13602404	     -7.50000057	     13.51077094	     -4.55359018	     -3.89668074	     65.71955641	      1.14702264	    -12.99805143	    -28.74392548	     -7.50000057	    -15.90742293	      3.17361483	      1.06204926	     -1.27785239	     -5.48237029	    -34.32908510	     47.65179298	    101.72451248	      8.90239891	     -3.21149929	    -20.73105948	     39.60434460	     88.59467517
      1.26000000	      1.16903906	      2.95644692	     92.05583389	     -0.19321156	      0.96724288	     -0.42481896	      4.75760334	      2.76812668	     -9.40238808	     18.79915758	      0.32810720	      8.39872233	     -4.17566691	     -7.50000053	     14.85236958	     -4.69803253	     -4.62599329	     65.42146556	      1.14181998	    -10.38393863	    -28.58758097	     -7.50000053	    -16.02598750	      2.94578315	      1.62577030	     -1.38356323	     -5.83272514	    -33.52939469	     48.22622360	    101.44466206	      8.48120671	     -3.05875269	    -21.53786355	     39.21338075	     87.86857794
      1.27000000	      0.87421558	      2.90880955	     91.82156617	     -0.19248028	      0.96812333	     -0.43565444	      3.77539060	      2.50570337	     -9.51032132	     18.21117959	      0.31784504	      8.84503604	     -3.26006022	     -7.50000036	     16.14153987	     -4.54713943	     -5.38062132	     64.73252326	      1.12979566	     -8.55356817	    -28.49293319	     -7.50000036	    -16.11635547	      2.51988197	      1.89132163	     -1.16613017	     -5.90966173	    -33.44409851	     48.64629815	    104.19465014	      7.90398961	     -2.94144242	    -22.93840858	     39.07570763	     89.70045929
      1.28000000	      0.58853166	      3.00784090	     91.42894260	     -0.19165664	      0.96913902	     -0.44668092	      2.64032312	      2.23605833	     -9.59629524	     17.59967055	      0.30717220	      9.17083477	     -2.32348995	     -7.50000030	     17.11907210	     -4.33950848	     -6.09820970	     63.69343815	      1.11166021	     -6.99233233	    -28.20317211	     -7.50000030	    -16.33869403	      2.07815308	      2.37316679	     -1.15387341	     -6.22024884	    -32.56743446	     49.15349736	    101.20680325	      7.33738503	     -2.99837790	    -23.20105696	     38.73563489	     86.95120874
